<svg width="97" height="24" viewBox="0 0 97 24" fill="none" xmlns="http://www.w3.org/2000/svg">
<g clip-path="url(#clip0_0_7874)">
<path fill-rule="evenodd" clip-rule="evenodd" d="M37.6803 7.00958L36.877 6.40707L37.2258 6.03778C37.2027 5.44428 37.4755 4.73779 37.9952 4.15195C38.5651 3.50962 39.3146 3.14483 39.9453 3.15823L40.2912 2.79201L40.8937 3.59536L40.8829 3.60688C41.35 4.22696 41.1642 5.34476 40.3611 6.2503C39.5097 7.20943 38.3396 7.50857 37.6832 7.00652L37.6803 7.00958Z" fill="url(#paint0_linear_0_7874)"/>
<path d="M39.8117 5.68721C40.7245 4.65837 40.9033 3.32641 40.211 2.71218C39.5187 2.09795 38.2174 2.43406 37.3046 3.4629C36.3918 4.49173 36.2131 5.8237 36.9054 6.43793C37.5977 7.05216 38.8989 6.71605 39.8117 5.68721Z" fill="url(#paint1_linear_0_7874)"/>
<path d="M39.8243 5.69857C40.7315 4.67604 40.9001 3.34417 40.2008 2.72376C39.5015 2.10335 38.1992 2.42933 37.292 3.45186C36.3848 4.4744 36.2162 5.80627 36.9155 6.42668C37.6148 7.04709 38.9171 6.72111 39.8243 5.69857Z" fill="#0052FE"/>
<path d="M10.3802 12.0672L19.2748 2.53711H14.5447L5.09816 12.4601V2.53711H0.847656V22.2689H5.09816V17.6167L7.58131 15.0396L13.4964 22.2689H18.4876L10.9819 12.8248L10.3802 12.0664V12.0672Z" fill="#0052FE"/>
<path d="M32.9823 11.3065C31.66 9.20893 29.2339 7.91153 26.276 7.91153C23.1148 7.91153 20.5481 9.3945 19.2965 11.7443C18.7559 12.7509 18.461 13.9198 18.461 15.1963C18.461 19.4556 21.7596 22.481 26.276 22.481C30.7924 22.481 34.066 19.4556 34.066 15.1963C34.066 13.7286 33.6764 12.4063 32.9823 11.3065ZM26.276 19.1142C24.2162 19.1142 22.6312 17.6417 22.6312 15.1963C22.6312 13.0931 23.8009 11.7098 25.4389 11.3643C25.7064 11.3057 25.9868 11.2767 26.276 11.2767C26.4792 11.2767 26.6745 11.2896 26.8665 11.3209C28.625 11.5748 29.8935 12.9895 29.8935 15.1963C29.8935 17.6417 28.3366 19.1142 26.2768 19.1142H26.276Z" fill="#0052FE"/>
<path d="M40.9306 8.12188H36.8119V22.2696H40.9306V8.12188Z" fill="#0052FE"/>
<path d="M53.3954 7.91153C51.4674 7.91153 49.8036 8.57027 48.695 9.7785V8.122H44.761V22.2698H48.879V15.2742C48.879 14.2459 49.1007 13.4353 49.4951 12.8336C50.0928 11.9058 51.089 11.4631 52.2868 11.4631C53.9055 11.4631 54.9193 12.293 55.125 14.0804C55.1515 14.3038 55.1644 14.5464 55.1644 14.8018V22.2689H57.433L59.2855 19.6966V14.172C59.2855 9.85723 56.7494 7.91153 53.3954 7.91153Z" fill="#0052FE"/>
<path d="M80.6955 2.46972L60.489 22.2698H66.7784L68.6244 19.6453L79.08 4.7689L80.6955 2.46972Z" fill="url(#paint2_linear_0_7874)"/>
<path d="M74.7395 2.46972L74.0936 3.36787L63.953 17.4554L60.489 22.2698L80.6955 2.46972H74.7395Z" fill="url(#paint3_linear_0_7874)"/>
<path d="M78.6952 18.8121L78.4341 18.4426C78.2164 18.1341 77.8621 17.951 77.4862 17.951H72.7328C72.5568 17.951 72.4203 18.0554 72.3552 18.1944L81.1414 22.2698L78.6952 18.8121Z" fill="#F69300"/>
<path d="M72.3552 18.1945C72.2974 18.3182 72.2966 18.4693 72.3825 18.601L73.3586 20.0864H73.361L74.7966 22.2699H81.1422L72.356 18.1945H72.3552Z" fill="url(#paint4_linear_0_7874)"/>
<path d="M69.4985 6.13457L67.9938 3.92536L67.0025 2.4705H60.7942L69.4013 6.70494C69.57 6.57882 69.6334 6.33299 69.4993 6.13457H69.4985Z" fill="url(#paint5_linear_0_7874)"/>
<path d="M60.7934 2.46975L63.4421 6.28806C63.4533 6.30332 63.4638 6.31617 63.475 6.33144C63.6943 6.61823 64.0341 6.78774 64.3972 6.78774H69.1531C69.2503 6.78774 69.333 6.754 69.4013 6.70339L60.7942 2.46895L60.7934 2.46975Z" fill="#F69300"/>
<path d="M89.4296 3.22591H87.7572V7.61219H86.627V3.22591H84.9774V2.39043H89.4296V3.22591ZM91.5416 2.39043L92.9457 6.1617L94.3442 2.39043H95.8226V7.61219H94.681V6.1617L94.8066 3.69007L93.3282 7.61219H92.5576L91.0849 3.69587L91.1991 6.1617V7.61219H90.0746V2.39043H91.5416Z" fill="black"/>
</g>
<defs>
<linearGradient id="paint0_linear_0_7874" x1="40.9942" y1="3.79621" x2="37.9815" y2="7.31087" gradientUnits="userSpaceOnUse">
<stop stop-color="#3372F5"/>
<stop offset="0.249995" stop-color="#3372F5"/>
<stop offset="0.505208" stop-color="#80DBFB"/>
<stop offset="0.838547" stop-color="#3372F5"/>
<stop offset="1" stop-color="#3372F5"/>
</linearGradient>
<linearGradient id="paint1_linear_0_7874" x1="45.4545" y1="3.78457" x2="44.6486" y2="4.69178" gradientUnits="userSpaceOnUse">
<stop stop-color="#0080D4"/>
<stop offset="0.47" stop-color="white"/>
<stop offset="0.6" stop-color="#F1F8FC"/>
<stop offset="1" stop-color="#007DCC"/>
</linearGradient>
<linearGradient id="paint2_linear_0_7874" x1="76.1558" y1="7.78306" x2="68.3272" y2="16.84" gradientUnits="userSpaceOnUse">
<stop stop-color="#FFAC00"/>
<stop offset="1" stop-color="#FE7801"/>
</linearGradient>
<linearGradient id="paint3_linear_0_7874" x1="60.489" y1="12.3702" x2="80.6955" y2="12.3702" gradientUnits="userSpaceOnUse">
<stop stop-color="#FFCE00"/>
<stop offset="1" stop-color="#FFB003"/>
</linearGradient>
<linearGradient id="paint4_linear_0_7874" x1="72.3142" y1="20.2326" x2="81.1414" y2="20.2326" gradientUnits="userSpaceOnUse">
<stop stop-color="#FE8B01"/>
<stop offset="1" stop-color="#FE7801"/>
</linearGradient>
<linearGradient id="paint5_linear_0_7874" x1="60.7934" y1="4.58732" x2="69.5716" y2="4.58732" gradientUnits="userSpaceOnUse">
<stop stop-color="#FFCE00"/>
<stop offset="1" stop-color="#FFC101"/>
</linearGradient>
<clipPath id="clip0_0_7874">
<rect width="96" height="24" fill="white" transform="translate(0.847656)"/>
</clipPath>
</defs>
</svg>
